# xmcd
#
# Track frame offsets: 
#        150
#        13480
#        35238
#        104584
#        125568
#        151958
#        211060
#        226885
#        241788
#        293985
#
# Disc length: 4657 seconds
#
# Revision: 2
# Processed by: cddbd v1.5.2PL0 Copyright (c) Steve Scherf et al.
# Submitted via: ExactAudioCopyFreeDBPlugin 1.0
#
DISCID=8c122f0a
DTITLE=Stevie Ray Vaughan - Live in Tokyo
DYEAR=2003
DGENRE=Blues
TTITLE0=Scuttle Buttin'
TTITLE1=Say What
TTITLE2=Voodoo Chile
TTITLE3=Cold Shot
TTITLE4=Couldn't Stand the Weather
TTITLE5=Tin Pan Alley (Dirty Pool)
TTITLE6=Mary Had a Little Lamb
TTITLE7=Love Struck Baby
TTITLE8=Texas Flood
TTITLE9=Lenny
EXTD=
EXTT0=
EXTT1=
EXTT2=
EXTT3=
EXTT4=
EXTT5=
EXTT6=
EXTT7=
EXTT8=
EXTT9=
PLAYORDER=
